<svg width="26" height="26" viewBox="0 0 26 26" fill="none" xmlns="http://www.w3.org/2000/svg">
<path d="M22.638 17.3671H9.4167C9.19732 17.3675 8.98434 17.2932 8.81275 17.1565C8.64116 17.0198 8.52116 16.8288 8.47246 16.6149L6.24625 6.91603C6.21368 6.77435 6.21349 6.62715 6.24568 6.48539C6.27787 6.34362 6.34161 6.21094 6.43217 6.09722C6.52273 5.9835 6.63776 5.89166 6.76872 5.82855C6.89968 5.76543 7.04318 5.73266 7.18855 5.73267H24.8661C25.0116 5.73237 25.1554 5.76492 25.2866 5.82791C25.4178 5.89091 25.5331 5.9827 25.6238 6.09646C25.7146 6.21022 25.7785 6.34301 25.8108 6.48491C25.8431 6.62682 25.8429 6.77419 25.8103 6.91603L23.5803 16.6149C23.5316 16.8285 23.4119 17.0193 23.2407 17.1559C23.0695 17.2926 22.857 17.367 22.638 17.3671ZM10.1863 15.4335H21.8684L23.6518 7.6682H8.4022L10.1863 15.4335Z" fill="#2C6369"/>
<path d="M11.3083 26.004C10.5755 26.004 9.85927 25.7867 9.25003 25.3796C8.64078 24.9726 8.16593 24.394 7.88553 23.717C7.60512 23.04 7.53175 22.2951 7.6747 21.5765C7.81765 20.8578 8.1705 20.1977 8.68862 19.6796C9.20674 19.1615 9.86686 18.8086 10.5855 18.6657C11.3042 18.5227 12.0491 18.5961 12.726 18.8765C13.403 19.1569 13.9816 19.6317 14.3887 20.241C14.7958 20.8502 15.013 21.5665 15.013 22.2992C15.012 23.2815 14.6214 24.2232 13.9268 24.9178C13.2323 25.6123 12.2905 26.003 11.3083 26.004ZM11.3083 20.5287C10.958 20.5287 10.6155 20.6326 10.3242 20.8273C10.0329 21.0219 9.80591 21.2986 9.67187 21.6222C9.53784 21.9459 9.5028 22.3021 9.57119 22.6457C9.63958 22.9893 9.80834 23.3049 10.0561 23.5525C10.3039 23.8002 10.6195 23.9688 10.9631 24.0371C11.3068 24.1054 11.6629 24.0702 11.9865 23.9361C12.3102 23.8019 12.5867 23.5748 12.7813 23.2834C12.9758 22.9921 13.0796 22.6496 13.0795 22.2992C13.0789 21.8297 12.8922 21.3796 12.5601 21.0476C12.228 20.7157 11.7778 20.5291 11.3083 20.5287Z" fill="#2C6369"/>
<path d="M20.7458 26.004C20.0131 26.004 19.2968 25.7867 18.6875 25.3796C18.0783 24.9726 17.6034 24.394 17.323 23.717C17.0426 23.04 16.9693 22.2951 17.1122 21.5765C17.2552 20.8578 17.608 20.1977 18.1261 19.6796C18.6442 19.1615 19.3044 18.8086 20.023 18.6657C20.7417 18.5227 21.4866 18.5961 22.1635 18.8765C22.8405 19.1569 23.4191 19.6317 23.8262 20.241C24.2333 20.8502 24.4505 21.5665 24.4505 22.2992C24.4495 23.2815 24.0589 24.2232 23.3643 24.9178C22.6698 25.6123 21.728 26.003 20.7458 26.004ZM20.7458 20.5287C20.3955 20.5287 20.053 20.6326 19.7617 20.8273C19.4704 21.0219 19.2434 21.2986 19.1094 21.6222C18.9753 21.9459 18.9403 22.3021 19.0087 22.6457C19.0771 22.9893 19.2458 23.3049 19.4936 23.5525C19.7414 23.8002 20.057 23.9688 20.4006 24.0371C20.7443 24.1054 21.1004 24.0702 21.424 23.9361C21.7477 23.8019 22.0242 23.5748 22.2188 23.2834C22.4133 22.9921 22.5171 22.6496 22.517 22.2992C22.5164 21.8297 22.3297 21.3796 21.9976 21.0476C21.6655 20.7157 21.2153 20.5291 20.7458 20.5287Z" fill="#2C6369"/>
<path d="M7.18856 7.66635C6.98562 7.66633 6.78783 7.60245 6.62322 7.48376C6.45861 7.36508 6.33552 7.1976 6.27139 7.00506L4.6143 2.02734H1.55664C1.30023 2.02734 1.05432 1.92549 0.873012 1.74418C0.691702 1.56287 0.589844 1.31696 0.589844 1.06055C0.589844 0.804136 0.691702 0.558228 0.873012 0.376918C1.05432 0.195609 1.30023 0.09375 1.55664 0.09375H5.31426C5.5172 0.0937688 5.71498 0.157647 5.87959 0.276334C6.04421 0.395022 6.1673 0.5625 6.23143 0.755039L8.10895 6.39404C8.15735 6.53936 8.17053 6.69409 8.1474 6.8455C8.12428 6.99691 8.06552 7.14066 7.97595 7.2649C7.88639 7.38915 7.76858 7.49034 7.63225 7.56013C7.49591 7.62993 7.34494 7.66633 7.19178 7.66635H7.18856Z" fill="#2C6369"/>
</svg>
