<svg width="32" height="33" viewBox="0 0 32 33" fill="none" xmlns="http://www.w3.org/2000/svg">
<path d="M8 26.8125C8 28.5203 9.343 29.9062 11 29.9062H21C22.656 29.9062 24 28.5203 24 26.8125L26 10.3125H6L8 26.8125ZM19 13.4062H21V26.8125H19V13.4062ZM15 13.4062H17V26.8125H15V13.4062ZM11 13.4062H13V26.8125H11V13.4062ZM25.5 6.1875H19C19 6.1875 18.552 4.125 18 4.125H14C13.447 4.125 13 6.1875 13 6.1875H6.5C5.671 6.1875 5 6.87947 5 7.73438C5 8.58928 5 9.28125 5 9.28125H27C27 9.28125 27 8.58928 27 7.73438C27 6.87947 26.328 6.1875 25.5 6.1875Z" fill="#2C6369"/>
</svg>
