<svg width="33" height="34" viewBox="0 0 33 34" fill="none" xmlns="http://www.w3.org/2000/svg">
<g clip-path="url(#clip0_141_435)">
<path d="M25.6752 20.7541C25.4284 20.6526 25.2124 20.6971 25.0276 20.8874L23.8436 22.1073C23.7327 22.2213 23.6769 22.3613 23.6769 22.5262V24.9279C23.6769 25.7666 23.3877 26.4842 22.8082 27.0816C22.2282 27.6787 21.5318 27.9773 20.7178 27.9773H5.3273C4.51341 27.9773 3.81659 27.6787 3.23691 27.0816C2.65724 26.4842 2.36756 25.7667 2.36756 24.9279V9.07143C2.36756 8.23281 2.65724 7.51495 3.23691 6.91764C3.81659 6.32053 4.51341 6.02194 5.3273 6.02194H20.7179C20.9891 6.02194 21.2667 6.06006 21.5503 6.13636C21.7727 6.21252 21.9696 6.16179 22.1421 5.98389L23.0482 5.05001C23.1963 4.89775 23.2516 4.71338 23.2148 4.49743C23.1778 4.29423 23.0666 4.14804 22.8817 4.05919C22.2156 3.74198 21.4944 3.58264 20.7175 3.58264H5.3273C3.85994 3.58264 2.60502 4.11947 1.56287 5.19313C0.521042 6.26693 0 7.55954 0 9.07157V24.9284C0 26.4401 0.521042 27.7329 1.56293 28.8066C2.60502 29.8805 3.86 30.4173 5.32737 30.4173H20.7175C22.1848 30.4173 23.4396 29.8805 24.4817 28.8066C25.5241 27.7329 26.0451 26.4402 26.0451 24.9284V21.3073C26.045 21.04 25.9215 20.856 25.6752 20.7541Z" fill="#2C6369"/>
<path d="M11.8384 20.0496V25.5381H17.166L29.5966 12.7309L24.2691 7.24207L11.8384 20.0496ZM16.4257 23.7086L15.3897 23.7082V21.8791H13.6141V20.8121L15.7599 18.6012L18.5716 21.4983L16.4257 23.7086ZM24.5463 10.6152L18.0718 17.2858C17.8622 17.5021 17.6587 17.5083 17.4614 17.305C17.2642 17.1017 17.2703 16.8921 17.48 16.6762L23.9545 10.0057C24.164 9.78944 24.3671 9.78316 24.5649 9.98649C24.7627 10.1898 24.7556 10.3994 24.5463 10.6152Z" fill="#2C6369"/>
<path d="M32.4821 7.16587L29.6705 4.26904C29.3253 3.91325 28.9062 3.73535 28.4127 3.73535C27.9194 3.73535 27.5001 3.91325 27.1551 4.26904L25.4531 6.02219L30.7807 11.5112L32.4822 9.75777C32.8274 9.40217 32.9999 8.97008 32.9999 8.46182C32.9999 7.95356 32.8273 7.52167 32.4821 7.16587Z" fill="#2C6369"/>
</g>
<defs>
<clipPath id="clip0_141_435">
<rect width="33" height="34" fill="white"/>
</clipPath>
</defs>
</svg>
