<svg width="41" height="41" viewBox="0 0 41 41" fill="none" xmlns="http://www.w3.org/2000/svg">
<path d="M34.6961 24.2071L33.953 23.6092C33.7532 23.4492 33.5919 23.2464 33.481 23.0158C33.3701 22.7852 33.3125 22.5326 33.3123 22.2767V15.375C33.3113 12.409 32.2814 9.5353 30.3982 7.24395C28.5149 4.95261 25.8951 3.38559 22.9855 2.8102C22.8436 2.25994 22.5228 1.77245 22.0737 1.42439C21.6245 1.07633 21.0724 0.887451 20.5041 0.887451C19.9359 0.887451 19.3837 1.07633 18.9345 1.42439C18.4854 1.77245 18.1646 2.25994 18.0228 2.8102C15.1116 3.38384 12.4898 4.95011 10.6048 7.24162C8.71989 9.53314 7.68872 12.4078 7.68734 15.375V22.2767C7.68718 22.5326 7.62953 22.7852 7.51864 23.0158C7.40776 23.2464 7.24648 23.4492 7.04671 23.6092L6.30359 24.2071C5.4061 24.9246 4.68087 25.8342 4.18124 26.8689C3.68161 27.9036 3.42029 29.0372 3.4165 30.1862V31.6042C3.4165 32.5103 3.77647 33.3794 4.41722 34.0201C5.05797 34.6609 5.92701 35.0208 6.83317 35.0208H13.8886C14.2737 36.4794 15.1306 37.7696 16.3257 38.6902C17.5208 39.6107 18.987 40.1099 20.4956 40.1099C22.0041 40.1099 23.4703 39.6107 24.6654 38.6902C25.8606 37.7696 26.7175 36.4794 27.1025 35.0208H34.1665C35.0727 35.0208 35.9417 34.6609 36.5825 34.0201C37.2232 33.3794 37.5832 32.5103 37.5832 31.6042V30.2033C37.5819 29.0514 37.3218 27.9145 36.8221 26.8766C36.3224 25.8387 35.5958 24.9264 34.6961 24.2071ZM20.4998 36.7292C19.9036 36.7256 19.3187 36.566 18.8032 36.2663C18.2877 35.9666 17.8596 35.5372 17.5615 35.0208H23.4467C23.1479 35.5385 22.7184 35.9686 22.2013 36.2684C21.6842 36.5682 21.0975 36.727 20.4998 36.7292ZM34.1665 31.6042H6.83317V30.2033C6.83408 29.5632 6.97887 28.9315 7.25683 28.3549C7.53479 27.7783 7.9388 27.2715 8.439 26.8721L9.18213 26.2742C9.78143 25.7943 10.2653 25.186 10.5979 24.4941C10.9306 23.8022 11.1035 23.0444 11.104 22.2767V15.375C11.104 12.8831 12.0939 10.4932 13.856 8.73113C15.618 6.96907 18.0079 5.97915 20.4998 5.97915C22.9918 5.97915 25.3816 6.96907 27.1437 8.73113C28.9058 10.4932 29.8957 12.8831 29.8957 15.375V22.2767C29.8949 23.0458 30.0672 23.8053 30.3999 24.4988C30.7326 25.1923 31.2171 25.802 31.8175 26.2827L32.5607 26.8806C33.0597 27.2791 33.4631 27.7845 33.741 28.3596C34.0189 28.9346 34.1643 29.5647 34.1665 30.2033V31.6042Z" fill="#D5FAF0"/>
</svg>
