<svg width="62" height="62" viewBox="0 0 62 62" fill="none" xmlns="http://www.w3.org/2000/svg">
<circle cx="31" cy="31" r="29.5" stroke="#D5FAF0" stroke-width="3"/>
<path d="M18.2407 29.2022C18.2407 36.4634 23.9824 42.4044 31.0001 42.4044C38.0178 42.4044 43.7595 36.4634 43.7595 29.2022C43.7595 21.941 38.0178 16 31.0001 16C23.9824 16 18.2407 21.941 18.2407 29.2022ZM29.1189 29.2022C29.1189 34.7549 36.3665 27 31.0001 27C25.6337 27 31.0001 32.5527 31.0001 27C31.0001 21.4473 25.6337 29.9042 31.0001 29.9042C36.3665 29.9042 29.1189 23.6495 29.1189 29.2022Z" fill="#D5FAF0"/>
<path d="M16.1391 56.5385C22.5 59 25.3709 61 31 61C36.6291 61 38.5 60 45.8609 56.5385L48 54.3252C43.4592 49.6656 37.4172 47.064 31 47.064C24.5828 47.064 18.5408 49.6656 14 54.3252L16.1391 56.5385Z" fill="#D5FAF0"/>
</svg>
