<svg width="45" height="45" viewBox="0 0 45 45" fill="none" xmlns="http://www.w3.org/2000/svg">
<g clip-path="url(#clip0_141_409)">
<path fill-rule="evenodd" clip-rule="evenodd" d="M28.0827 31.0374C25.7013 32.8001 33.1066 25.2275 30.9993 28.1061C31.052 28.1019 30.9543 28.2615 30.6266 28.6616C30.6266 28.6616 36.2545 34.2514 39.017 37.0962C39.9761 38.1334 38.2457 40.2034 37.0701 39.1226C34.5684 36.6955 28.6488 30.6634 28.6396 30.6535L28.0827 31.0374Z" fill="#66A8A6"/>
<path d="M19.8133 33.8639C23.4344 33.8288 27.019 32.329 29.5966 29.7816C32.658 26.756 34.2344 22.2799 33.6846 18.0064C32.7424 10.6833 26.7223 5.71362 19.7233 5.71362C14.4056 5.71362 9.23765 9.04011 6.97077 13.8635C5.23546 17.5564 5.23194 22.0149 6.97077 25.714C9.22147 30.5037 14.3051 33.8126 19.6326 33.8639C19.6931 33.8639 19.7536 33.8639 19.8133 33.8639ZM19.6474 31.5176C14.2397 31.4656 9.19405 27.2834 8.19069 21.9214C7.48335 18.1414 8.81858 14.0506 11.6001 11.366C14.8472 8.23081 19.9512 7.18104 24.1952 8.95784C27.9921 10.5476 30.8341 14.239 31.358 18.3059C31.8066 21.792 30.5557 25.4454 28.0976 27.9619C25.9411 30.1697 22.9169 31.4874 19.7986 31.5176C19.748 31.5176 19.698 31.5176 19.6474 31.5176Z" fill="#66A8A6"/>
</g>
<defs>
<clipPath id="clip0_141_409">
<rect width="45" height="45" fill="white"/>
</clipPath>
</defs>
</svg>
